<svg width="1560" height="402" viewBox="0 0 1560 402" fill="none" xmlns="http://www.w3.org/2000/svg">
<g clip-path="url(#clip0_2486_1172)">
<path d="M445.282 117.273H489.276L535.742 230.636H537.719L584.185 117.273H628.18V286H593.577V176.179H592.177L548.512 285.176H524.95L481.285 175.767H479.884V286H445.282V117.273ZM714.088 288.472C701.291 288.472 690.223 285.753 680.886 280.315C671.604 274.823 664.437 267.188 659.384 257.412C654.33 247.58 651.804 236.184 651.804 223.222C651.804 210.15 654.33 198.725 659.384 188.949C664.437 179.117 671.604 171.483 680.886 166.045C690.223 160.553 701.291 157.807 714.088 157.807C726.885 157.807 737.925 160.553 747.207 166.045C756.545 171.483 763.74 179.117 768.793 188.949C773.846 198.725 776.372 210.15 776.372 223.222C776.372 236.184 773.846 247.58 768.793 257.412C763.74 267.188 756.545 274.823 747.207 280.315C737.925 285.753 726.885 288.472 714.088 288.472ZM714.253 261.284C720.075 261.284 724.936 259.636 728.835 256.341C732.735 252.991 735.673 248.432 737.651 242.665C739.683 236.898 740.699 230.334 740.699 222.974C740.699 215.615 739.683 209.051 737.651 203.284C735.673 197.517 732.735 192.958 728.835 189.608C724.936 186.258 720.075 184.582 714.253 184.582C708.376 184.582 703.433 186.258 699.423 189.608C695.469 192.958 692.475 197.517 690.443 203.284C688.466 209.051 687.477 215.615 687.477 222.974C687.477 230.334 688.466 236.898 690.443 242.665C692.475 248.432 695.469 252.991 699.423 256.341C703.433 259.636 708.376 261.284 714.253 261.284ZM856.369 288.472C843.572 288.472 832.505 285.753 823.168 280.315C813.885 274.823 806.718 267.188 801.665 257.412C796.612 247.58 794.085 236.184 794.085 223.222C794.085 210.15 796.612 198.725 801.665 188.949C806.718 179.117 813.885 171.483 823.168 166.045C832.505 160.553 843.572 157.807 856.369 157.807C869.167 157.807 880.206 160.553 889.489 166.045C898.826 171.483 906.021 179.117 911.074 188.949C916.127 198.725 918.653 210.15 918.653 223.222C918.653 236.184 916.127 247.58 911.074 257.412C906.021 267.188 898.826 274.823 889.489 280.315C880.206 285.753 869.167 288.472 856.369 288.472ZM856.534 261.284C862.356 261.284 867.217 259.636 871.116 256.341C875.016 252.991 877.955 248.432 879.932 242.665C881.964 236.898 882.98 230.334 882.98 222.974C882.98 215.615 881.964 209.051 879.932 203.284C877.955 197.517 875.016 192.958 871.116 189.608C867.217 186.258 862.356 184.582 856.534 184.582C850.657 184.582 845.714 186.258 841.705 189.608C837.75 192.958 834.757 197.517 832.724 203.284C830.747 209.051 829.759 215.615 829.759 222.974C829.759 230.334 830.747 236.898 832.724 242.665C834.757 248.432 837.75 252.991 841.705 256.341C845.714 259.636 850.657 261.284 856.534 261.284ZM988.105 288.06C978.493 288.06 969.788 285.588 961.989 280.645C954.244 275.647 948.093 268.314 943.534 258.648C939.03 248.926 936.778 237.008 936.778 222.892C936.778 208.392 939.113 196.336 943.781 186.724C948.45 177.058 954.656 169.835 962.401 165.057C970.2 160.223 978.741 157.807 988.023 157.807C995.108 157.807 1001.01 159.015 1005.74 161.432C1010.51 163.794 1014.36 166.759 1017.27 170.33C1020.24 173.845 1022.49 177.305 1024.03 180.71H1025.1V117.273H1060.11V286H1025.51V265.733H1024.03C1022.38 269.248 1020.04 272.736 1017.02 276.196C1014.06 279.601 1010.18 282.43 1005.41 284.682C1000.68 286.934 994.916 288.06 988.105 288.06ZM999.227 260.131C1004.88 260.131 1009.66 258.593 1013.56 255.517C1017.52 252.386 1020.54 248.02 1022.62 242.418C1024.77 236.815 1025.84 230.252 1025.84 222.727C1025.84 215.203 1024.79 208.667 1022.71 203.119C1020.62 197.572 1017.6 193.288 1013.64 190.267C1009.69 187.246 1004.88 185.736 999.227 185.736C993.46 185.736 988.599 187.301 984.645 190.432C980.69 193.562 977.697 197.902 975.665 203.449C973.633 208.996 972.616 215.422 972.616 222.727C972.616 230.087 973.633 236.596 975.665 242.253C977.752 247.855 980.745 252.249 984.645 255.435C988.599 258.565 993.46 260.131 999.227 260.131ZM1143.32 286V117.273H1178.99V256.588H1251.33V286H1143.32ZM1331.47 288.472C1318.67 288.472 1307.61 285.753 1298.27 280.315C1288.99 274.823 1281.82 267.188 1276.77 257.412C1271.71 247.58 1269.19 236.184 1269.19 223.222C1269.19 210.15 1271.71 198.725 1276.77 188.949C1281.82 179.117 1288.99 171.483 1298.27 166.045C1307.61 160.553 1318.67 157.807 1331.47 157.807C1344.27 157.807 1355.31 160.553 1364.59 166.045C1373.93 171.483 1381.12 179.117 1386.18 188.949C1391.23 198.725 1393.75 210.15 1393.75 223.222C1393.75 236.184 1391.23 247.58 1386.18 257.412C1381.12 267.188 1373.93 274.823 1364.59 280.315C1355.31 285.753 1344.27 288.472 1331.47 288.472ZM1331.64 261.284C1337.46 261.284 1342.32 259.636 1346.22 256.341C1350.12 252.991 1353.06 248.432 1355.03 242.665C1357.07 236.898 1358.08 230.334 1358.08 222.974C1358.08 215.615 1357.07 209.051 1355.03 203.284C1353.06 197.517 1350.12 192.958 1346.22 189.608C1342.32 186.258 1337.46 184.582 1331.64 184.582C1325.76 184.582 1320.82 186.258 1316.81 189.608C1312.85 192.958 1309.86 197.517 1307.83 203.284C1305.85 209.051 1304.86 215.615 1304.86 222.974C1304.86 230.334 1305.85 236.898 1307.83 242.665C1309.86 248.432 1312.85 252.991 1316.81 256.341C1320.82 259.636 1325.76 261.284 1331.64 261.284ZM1473.59 336.091C1462.22 336.091 1452.47 334.526 1444.34 331.395C1436.27 328.319 1429.84 324.117 1425.06 318.79C1420.28 313.462 1417.18 307.475 1415.75 300.83L1448.21 296.463C1449.2 298.99 1450.77 301.351 1452.91 303.548C1455.05 305.745 1457.88 307.503 1461.39 308.821C1464.96 310.194 1469.3 310.881 1474.41 310.881C1482.05 310.881 1488.33 309.013 1493.28 305.278C1498.28 301.598 1500.77 295.42 1500.77 286.741V263.591H1499.29C1497.75 267.106 1495.45 270.429 1492.37 273.56C1489.3 276.69 1485.34 279.244 1480.51 281.222C1475.67 283.199 1469.91 284.188 1463.21 284.188C1453.7 284.188 1445.05 281.991 1437.25 277.597C1429.51 273.148 1423.33 266.365 1418.72 257.247C1414.16 248.075 1411.88 236.486 1411.88 222.48C1411.88 208.145 1414.21 196.171 1418.88 186.56C1423.55 176.948 1429.76 169.753 1437.5 164.974C1445.3 160.196 1453.84 157.807 1463.12 157.807C1470.21 157.807 1476.14 159.015 1480.92 161.432C1485.7 163.794 1489.54 166.759 1492.45 170.33C1495.42 173.845 1497.7 177.305 1499.29 180.71H1500.61V159.455H1535.46V287.236C1535.46 298.001 1532.82 307.009 1527.55 314.259C1522.28 321.509 1514.97 326.946 1505.64 330.571C1496.35 334.251 1485.67 336.091 1473.59 336.091ZM1474.33 257.824C1479.99 257.824 1484.76 256.423 1488.66 253.622C1492.62 250.766 1495.64 246.702 1497.73 241.429C1499.87 236.101 1500.94 229.73 1500.94 222.315C1500.94 214.901 1499.9 208.474 1497.81 203.037C1495.72 197.545 1492.7 193.288 1488.75 190.267C1484.79 187.246 1479.99 185.736 1474.33 185.736C1468.56 185.736 1463.7 187.301 1459.75 190.432C1455.79 193.508 1452.8 197.792 1450.77 203.284C1448.73 208.777 1447.72 215.12 1447.72 222.315C1447.72 229.62 1448.73 235.937 1450.77 241.264C1452.85 246.537 1455.85 250.629 1459.75 253.54C1463.7 256.396 1468.56 257.824 1474.33 257.824Z" fill="black"/>
<g clip-path="url(#clip1_2486_1172)">
<path d="M63.0983 192.5C63.0983 119.93 121.878 61.1006 194.387 61.1006C266.896 61.1006 325.676 119.93 325.676 192.5C325.676 265.069 266.896 323.899 194.387 323.899C121.878 323.899 63.0983 265.069 63.0983 192.5Z" fill="#FBC15B"/>
<path d="M153.391 63.5668C154.347 63.2129 155.779 63.0386 156.928 62.7216C161.757 61.4176 163.596 61.1694 168.036 60.3613C174.637 58.8093 194.78 57.3528 194.382 59.3952C194.311 59.7258 192.645 60.0997 192.407 60.4819C192.169 60.8649 192.378 63.2757 190.093 63.4805C186.797 63.7075 178.757 63.8388 176.997 64.1541C175.795 64.3348 174.349 64.771 172.819 65.0686C167.909 66.0456 165.3 66.4707 161.104 68.1924C159.282 68.3524 157.464 68.5507 155.644 68.7896C153.426 69.6275 149.925 70.4251 148.582 70.9663C147.483 71.4028 146.93 71.8871 145.799 72.3572C144.533 72.886 142.47 73.4557 140.209 74.5428C136.515 76.3389 136.166 77.2867 134.037 78.4949C131.834 79.7538 128.218 81.4129 125.596 83.3532C125.291 83.6315 124.987 83.9111 124.684 84.1918C125.017 84.1703 125.349 84.15 125.68 84.1313C124.352 85.0697 123.587 85.1767 122.343 86.0107C120.882 86.9972 120.333 87.777 119.374 88.4668C118.589 89.0324 117.382 89.6109 116.392 90.3903C114.952 91.528 115.497 91.573 114.768 92.2368C114.449 92.4707 109.052 97.3165 108.78 97.6228C106.495 99.7275 105.963 99.5607 104.155 101.274C99.1571 106.047 94.8505 111.729 91.2235 116.953C89.5994 119.284 87.9064 121.716 86.3231 124.068C87.6522 119.584 81.5137 127.505 85.1793 125.385C83.2851 127.934 82.6425 130.16 81.1641 132.752C80.2142 134.435 79.3477 135.51 78.1743 138.016C76.0773 142.477 74.9234 147.765 73.1123 148.617C71.3763 154.136 69.5895 158.879 70.3061 161.2C70.0104 162.642 68.444 166.214 68.0393 167.835C67.5233 169.339 65.5755 181.375 65.5463 183.381C65.3787 185.379 65.2212 188.855 65.3154 190.544C65.4292 192.671 66.7092 194.113 65.3274 197.901C65.6529 202.263 65.7405 203.794 66.0221 207.872C66.0775 208.608 65.8644 208.719 65.9185 209.147C66.0311 210.03 66.3985 211.489 66.6698 213.056C67.1155 215.625 66.9453 217.166 67.6027 216.746C68.0404 218.399 68.5135 220.055 69.0173 221.69C69.0155 222.304 69.0181 222.92 69.0252 223.535C69.3921 224.385 69.7685 225.233 70.1539 226.076C68.8373 225.318 71.2131 231.35 71.208 229.169C71.9375 232.392 72.7953 235.6 73.7829 238.785C72.4618 238.798 76.4261 245.6 76.7863 244.71C76.9391 245.056 77.0933 245.402 77.249 245.747C78.3356 248.893 79.9176 251.516 81.6906 255.155C83.4923 258.788 83.238 258.497 83.3989 259.845C83.9239 260.649 84.4573 261.447 84.999 262.237C89.0127 265.588 86.2407 266.438 92.4105 272.597C93.3399 275.367 98.1576 280.264 101.527 283.25C101.917 283.601 102.054 283.479 102.584 283.933C103.865 285.054 106.866 288.198 107.165 287.652C108.151 288.791 109.159 289.915 110.188 291.023C111.191 291.74 112.203 292.442 113.223 293.128C113.334 292.98 113.446 292.832 113.558 292.684C115.065 294.731 118.32 296.87 119.795 298.088C120.088 298.332 120.005 298.592 120.941 299.324C122.034 300.185 124.227 301.545 125.587 302.488C126.282 302.59 126.976 302.686 127.668 302.775C130.255 304.156 130.791 305.301 132.283 306.193C132.54 306.375 137.616 308.939 137.913 309.036C140.239 309.984 139.806 309.241 146.418 312.123C147.601 312.624 148.494 313.204 149.586 313.619C151.497 314.385 157.553 315.802 158.145 315.466C160.347 316.761 166.874 318.11 168.771 318.626C169.339 318.791 169.394 319.187 171.174 319.594C172.619 319.934 176.427 320.23 178.278 320.498C180.244 320.795 180.933 321.168 181.814 321.277C182.649 321.378 183.444 321.198 184.589 321.286C188.174 321.564 191.39 322.061 194.256 322.071C198.398 322.085 201.979 321.166 205.35 320.553C206.197 320.53 207.032 320.61 207.921 320.519C218.874 319.438 231.064 316.623 241.409 312.691C246.261 311.043 258.12 306.03 254.298 306.117C255.79 305.155 267.162 298.982 269.107 297.422C271.117 295.996 272.489 294.571 274.002 293.37C278.541 289.719 281.806 287.161 286.586 281.901C287.815 280.537 288.88 278.851 289.604 278.049C290.478 277.084 291.662 276.252 292.768 274.968C295.434 271.932 299.818 265.805 301.944 262.571C302.339 261.985 302.728 261.941 303.35 261.133C305.785 257.99 307.882 254.063 306.659 254.288C309.57 250.132 311.135 245.666 312.884 241.344C316.842 232.287 321.307 214.713 321.552 206.082C321.795 200.671 321.463 200.812 321.948 192.851C322.035 191.074 322.121 189.307 322.133 187.165C322.162 182.139 322.458 177.395 320.948 173.739C320.374 168.156 319.236 163.854 318.979 159.617C318.663 159.189 318.344 158.765 318.024 158.345C317.837 157.683 317.644 157.024 317.447 156.367C317.567 156.109 317.687 155.849 317.807 155.589C316.46 150.821 313.543 145.222 311.875 141.424C309.363 134.902 300.411 119.247 296.32 113.98C294.259 111.109 293.812 111.242 293.15 109.153C292.595 108.585 292.035 108.022 291.471 107.465C291.008 107.212 290.545 106.962 290.081 106.716C287.071 103.35 283.465 99.3593 280.241 96.488C274.426 91.1672 264.561 84.6704 257.841 80.5701C256.165 79.5184 254.162 78.0192 252.423 77.1491C249.887 75.8909 249.013 76.1462 245.746 74.7118C240.163 72.1729 229.446 67.8892 223.708 66.7181C222.015 66.3432 221.167 66.4035 219.993 66.1897C215.073 65.3133 210.978 64.7085 206.175 64.621C201.107 63.596 201.553 62.9247 199.985 62.0635C198.799 61.4137 195.012 59.9917 194.454 59.4893C194.067 59.1281 195.511 58.6685 194.971 58.2698C201.43 58.0192 204.137 58.5834 209.252 59.6776C218.803 60.7126 228.268 62.7907 237.383 65.868C238.143 66.3549 238.894 66.8483 239.638 67.348L239.637 67.3493C243.005 68.8459 244.64 68.9371 246.524 69.5927C255.536 72.7085 268.236 79.5097 279.3 88.8127C290.454 98.0213 299.744 109.55 305.46 118.34C308.111 122.009 315.394 134.86 316.183 137.914C316.428 138.685 316.212 139.024 316.537 139.812C319.732 146.719 322.339 153.927 324.307 161.319C327.47 176.713 328.812 193.052 326.964 208.83C322.224 251.544 295.391 290.605 258.024 310.51C250.862 314.425 241.341 318.667 233.614 320.811C230.402 321.706 228.925 321.581 224.769 322.978C224.691 322.848 224.615 322.717 224.537 322.586C220.856 323.603 218.53 324.397 214.284 325.079C210.743 325.714 201.186 326.54 198.01 326.493C196.355 326.505 196.967 326.224 195.424 326.242C192.77 326.286 187.136 326.504 183.491 326.186C180.202 325.945 174.726 324.922 172.213 324.525C163.197 323.196 153.371 320.986 144.349 317.209C141.857 316.18 138.834 314.432 138.072 314.081C136.574 313.405 135.987 313.494 134.971 313.043C129.793 310.784 122.42 305.946 117.939 302.747C103.196 292.49 89.7367 278.504 80.3894 263.223C74.2308 253.714 66.8572 236.267 64.7421 226.022C64.245 223.834 64.7517 224.326 64.324 222.495C63.8599 220.462 63.3935 219.395 63.1847 218.446C61.5598 211.861 60.0209 196.963 60.5479 190.524C60.6152 189.305 60.9336 188.433 60.9578 187.709C60.9709 187.341 60.8013 186.509 60.8417 185.352C61.2564 175.14 62.5535 167.721 65.1285 158.059C70.0278 139.542 80.244 119.194 93.8019 104.237C96.7316 100.965 99.275 99.2472 99.6973 98.8054C100.639 97.8424 100.967 96.9469 102.893 94.995C109.273 88.4535 119.427 81.4258 126.836 76.9462C130.467 74.682 135.493 71.5345 139.322 69.7131C142.358 68.1864 149.898 65.5412 151.263 64.9002C152.087 64.4847 152.359 63.952 153.391 63.5668ZM76.6564 140.57C76.2544 139.764 74.4202 145.585 75.6255 143.619C75.8885 143.177 76.7505 140.776 76.6564 140.57ZM222.705 319.298C222.609 319.123 222.513 318.948 222.416 318.773C221.654 319.023 220.881 319.268 220.115 319.504C220.576 319.529 221.044 319.55 221.51 319.568C221.909 319.48 222.307 319.39 222.705 319.298Z" fill="#252525"/>
<path d="M153.723 134.746C158.428 134.746 162.243 130.928 162.243 126.219C162.243 121.509 158.428 117.691 153.723 117.691C149.017 117.691 145.202 121.509 145.202 126.219C145.202 130.928 149.017 134.746 153.723 134.746Z" fill="#252525"/>
<path d="M166.635 122.108C166.724 122.188 166.453 122.42 166.468 122.536C166.53 123.032 166.35 123.262 166.311 123.709C166.282 124.359 166.826 126.288 164.459 126.219C164.027 126.212 163.554 126.088 163.065 126.079C162.576 126.071 159.421 126.121 159.241 126.034C159.005 125.91 159.779 125.49 159.729 125.401C159.697 125.347 159.402 125.322 159.341 125.263C159.144 125.08 159.318 124.905 158.519 124.931C158.898 124.758 159.271 124.568 159.637 124.363C159.423 124.316 159.879 123.978 159.823 123.916C159.779 123.869 159.464 123.956 159.429 123.909C159.388 123.857 159.67 123.623 159.57 123.531C159.405 123.379 158.632 123.733 158.49 123.694C158.345 123.657 158.657 123.276 158.329 123.314C158.241 123.35 158.154 123.386 158.066 123.423C157.896 123.547 157.724 123.67 157.552 123.792C157.439 123.797 157.786 123.54 157.76 123.487C157.729 123.425 157.375 123.635 157.354 123.601C157.336 123.573 157.571 123.339 157.526 123.313C157.461 123.275 157.097 123.58 157.007 123.61C156.971 123.618 156.623 123.612 156.613 123.609C156.537 123.552 157.001 123.099 156.978 122.994C156.908 122.702 156.362 122.928 156.09 122.976C155.965 122.994 155.915 122.914 155.894 122.778C156.939 121.472 157.261 120.147 156.033 122.446C156.128 122.071 155.708 122.639 155.682 122.492C155.664 122.394 155.783 122.05 155.688 122.015C155.503 121.95 154.997 122.855 155.574 121.094C155.25 121.322 155.211 120.618 154.741 122.187C154.678 122.273 154.762 121.293 154.714 121.149C154.673 121.01 154.281 120.511 154.178 120.483C154.094 120.451 153.92 120.416 153.828 120.559C153.707 120.735 153.658 122.431 153.439 120.455C153.232 120.627 153.186 120.576 152.998 120.365C152.964 120.328 152.926 120.036 152.908 120.038C152.868 120.043 152.835 120.267 152.769 120.305C152.661 120.366 152.475 119.771 152.665 120.699C152.622 120.868 152.585 121.038 152.554 121.208C152.49 121.036 152.424 120.864 152.355 120.693C152.363 120.896 152.376 121.098 152.393 121.3C152.082 119.964 152.02 120.822 152.333 121.55C152.134 121.313 151.915 121.088 151.676 120.876C151.137 119.414 151.287 120.842 151.676 121.597C151.662 121.602 151.648 121.607 151.634 121.612C151.34 121.292 151.377 121.651 151.099 121.487C150.814 121.33 150.75 121.193 150.328 120.612C150.307 120.672 150.289 120.732 150.271 120.792C151.159 122.557 149.259 119.732 149.799 121.213C148.926 120.328 149.025 121.096 149.134 121.516C149.145 121.565 149.313 121.737 149.341 121.813C149.41 121.994 149.043 121.934 149.617 122.451C149.409 122.348 149.197 122.251 148.98 122.161C149.048 122.297 149.119 122.431 149.194 122.562C149.381 122.714 149.569 122.865 149.756 123.016C149.053 122.579 149.193 122.918 148.986 122.871C148.944 122.862 148.67 122.672 148.563 122.668C148.435 122.663 148.449 122.822 148.318 122.835C148.613 123.058 148.911 123.276 149.212 123.489C149.324 123.691 148.46 123.245 148.352 123.283C148.333 123.29 148.272 123.56 148.286 123.582C148.383 123.761 149.144 124.076 148.871 124.272C148.823 124.307 148.539 124.245 148.511 124.289C148.457 124.37 148.997 124.816 149.572 124.992C148.826 124.862 149.06 125.195 148.835 125.221C148.765 125.23 148.294 125.141 148.18 125.202C148.085 125.255 148.44 125.469 148.369 125.52C148.29 125.581 147.888 125.572 147.855 125.607C147.825 125.64 148.146 125.695 148.14 125.742C148.116 125.887 147.587 126.047 147.577 126.212C147.562 126.452 148.535 126.613 148.972 126.69C148.912 126.722 148.71 126.766 148.711 126.795C148.714 127.13 148.66 127.712 148.639 128.211C148.612 128.424 147.728 129.559 149.582 128.403C149.936 128.271 149.432 129.128 149.495 129.231C149.544 129.322 149.902 129.147 149.95 129.199C150.095 129.355 150.002 129.674 150.431 129.62C150.544 129.604 150.907 129.31 150.929 129.337C150.954 129.37 150.697 129.739 150.727 129.802C150.8 129.949 151.108 129.993 151.182 130.132C151.195 130.159 150.99 130.494 150.959 130.62C150.84 131.113 151.045 131.178 151.616 130.061C151.434 130.773 151.896 130.274 152.048 130.293C152.355 130.35 153.008 130.793 153.233 130.278C153.406 129.961 153.355 129.404 153.705 129.897C153.791 130.005 153.873 130.148 153.96 130.272C154.147 130.565 154.403 131.579 154.341 130.322C154.564 130.617 154.653 130.364 155.079 131.359C155.033 131.105 154.984 130.853 154.933 130.6C154.955 130.588 154.976 130.575 154.997 130.562C155.073 130.795 155.151 131.028 155.229 131.26C155.454 131.262 155.326 130.234 155.444 130.189C155.657 130.12 156.388 130.144 156.804 130.23C157.025 130.28 156.69 129.875 157.45 130.645C157.429 130.565 157.406 130.485 157.382 130.406C157.243 130.215 157.101 130.025 156.958 129.836C157.076 129.718 157.485 129.828 157.601 129.692C157.823 129.435 157.542 128.713 158.051 128.674C158.181 128.663 158.66 128.801 158.693 128.722C158.742 128.607 158.024 128.235 158.062 128.113C158.126 127.919 159.163 127.773 159.152 127.49C159.148 127.411 158.862 127.315 158.839 127.262C158.744 127.04 158.792 126.87 158.346 126.651C159.133 126.528 160.128 126.58 161.14 126.539C161.904 126.514 163.671 126.279 164.336 126.225C164.805 126.192 165.407 126.317 165.922 126.272C166.328 126.863 165.853 127.127 165.086 127.49C165.024 128.311 164.872 129.133 164.632 129.929C164.342 129.911 164.052 129.886 163.764 129.856L163.762 129.855C163.357 130.017 163.984 130.394 164.069 130.617C164.938 132.849 161.629 135.035 160.053 135.713C159.731 135.904 158.776 136.852 158.338 136.531C158.227 136.451 158.036 136.061 157.966 136.07C157.505 136.551 156.98 137 156.4 137.404C154.931 137.055 153.818 137.683 152.345 137.623C148.608 137.49 144.878 135.348 143.166 131.925C142.836 131.281 142.168 130.523 142.159 129.759C142.154 129.44 142.796 129.154 142.202 128.903C142.384 128.857 142.566 128.811 142.748 128.765C142.456 128.501 141.996 128.374 141.893 127.99C141.799 127.659 141.7 126.741 141.773 126.504C141.807 126.37 142.158 126.416 142.155 126.298C142.147 126.105 141.671 125.649 141.699 125.299C141.72 124.99 142.191 124.497 142.171 124.279C142.092 123.469 141.762 122.397 142.253 121.608C142.388 121.391 142.932 121.29 142.951 121.22C142.989 121.077 142.611 120.845 142.605 120.727C142.58 120.122 143.453 119.676 143.752 119.291C144.724 118 145.867 116.651 147.301 115.858C148.183 115.342 149.762 114.598 150.754 114.709C150.965 114.73 151.028 115.213 151.183 115.177C151.354 115.138 151.384 114.799 151.462 114.756C151.967 114.445 153.444 113.996 153.874 114.356C153.97 114.421 154.034 114.803 154.091 114.803C154.121 114.804 154.193 114.547 154.293 114.525C155.202 114.338 155.922 114.605 156.729 114.909C158.282 115.478 160.291 115.991 161.467 117.381C161.722 117.682 161.379 118.401 161.419 118.429C161.507 118.496 161.916 118.19 162.171 118.278C163.027 118.583 163.248 119.781 163.833 120.296C164.128 120.55 164.944 120.732 165.237 121.044C165.478 121.29 165.509 122.081 165.816 122.126C166.004 122.153 166.535 122.023 166.635 122.108ZM155.761 121.586C156.134 120.795 155.615 121.364 155.523 121.833C155.5 121.938 155.663 121.79 155.761 121.586ZM147.308 127.656C147.552 127.599 147.794 127.542 148.036 127.486C147.927 127.473 147.819 127.458 147.71 127.442C147.567 127.492 147.425 127.544 147.283 127.598C147.291 127.617 147.3 127.637 147.308 127.656Z" fill="#252525"/>
<path d="M235.052 134.746C239.758 134.746 243.572 130.928 243.572 126.219C243.572 121.509 239.758 117.691 235.052 117.691C230.346 117.691 226.532 121.509 226.532 126.219C226.532 130.928 230.346 134.746 235.052 134.746Z" fill="#252525"/>
<path d="M247.964 122.108C248.053 122.188 247.782 122.42 247.797 122.536C247.859 123.032 247.68 123.262 247.64 123.709C247.612 124.359 248.155 126.288 245.788 126.219C245.356 126.212 244.884 126.088 244.395 126.079C243.905 126.071 240.75 126.121 240.57 126.034C240.335 125.91 241.108 125.49 241.058 125.401C241.026 125.347 240.732 125.322 240.671 125.263C240.473 125.08 240.647 124.905 239.848 124.931C240.228 124.758 240.6 124.568 240.967 124.363C240.753 124.316 241.208 123.978 241.152 123.916C241.108 123.869 240.794 123.956 240.758 123.909C240.717 123.857 241 123.623 240.899 123.531C240.734 123.379 239.961 123.733 239.819 123.694C239.675 123.657 239.987 123.276 239.658 123.314C239.571 123.35 239.483 123.386 239.396 123.423C239.225 123.547 239.053 123.67 238.881 123.792C238.768 123.797 239.115 123.54 239.09 123.487C239.059 123.425 238.705 123.635 238.683 123.601C238.665 123.573 238.901 123.339 238.855 123.313C238.791 123.275 238.427 123.58 238.337 123.61C238.301 123.618 237.953 123.612 237.943 123.609C237.866 123.552 238.331 123.099 238.307 122.994C238.237 122.702 237.692 122.928 237.419 122.976C237.294 122.994 237.244 122.914 237.223 122.778C238.268 121.472 238.59 120.147 237.363 122.446C237.458 122.071 237.037 122.639 237.012 122.492C236.993 122.394 237.112 122.05 237.017 122.015C236.833 121.95 236.326 122.855 236.903 121.094C236.579 121.322 236.541 120.618 236.071 122.187C236.007 122.273 236.091 121.293 236.043 121.149C236.002 121.01 235.61 120.511 235.507 120.483C235.423 120.451 235.25 120.416 235.157 120.559C235.037 120.735 234.988 122.431 234.769 120.455C234.562 120.627 234.515 120.576 234.328 120.365C234.294 120.328 234.256 120.036 234.237 120.038C234.198 120.043 234.164 120.267 234.098 120.305C233.99 120.366 233.805 119.771 233.995 120.699C233.951 120.868 233.915 121.038 233.884 121.208C233.82 121.036 233.753 120.864 233.684 120.693C233.693 120.896 233.706 121.098 233.723 121.3C233.411 119.964 233.349 120.822 233.662 121.55C233.463 121.313 233.244 121.088 233.006 120.876C232.466 119.414 232.616 120.842 233.006 121.597C232.992 121.602 232.978 121.607 232.964 121.612C232.669 121.292 232.707 121.651 232.429 121.487C232.143 121.33 232.079 121.193 231.657 120.612C231.637 120.672 231.618 120.732 231.601 120.792C232.489 122.557 230.588 119.732 231.128 121.213C230.256 120.328 230.354 121.096 230.463 121.516C230.474 121.565 230.642 121.737 230.67 121.813C230.739 121.994 230.373 121.934 230.947 122.451C230.738 122.348 230.526 122.251 230.309 122.161C230.377 122.297 230.449 122.431 230.523 122.562C230.711 122.714 230.898 122.865 231.085 123.016C230.382 122.579 230.522 122.918 230.316 122.871C230.274 122.862 229.999 122.672 229.893 122.668C229.765 122.663 229.778 122.822 229.647 122.835C229.942 123.058 230.24 123.276 230.542 123.489C230.653 123.691 229.79 123.245 229.682 123.283C229.663 123.29 229.601 123.56 229.615 123.582C229.713 123.761 230.474 124.076 230.201 124.272C230.152 124.307 229.869 124.245 229.841 124.289C229.786 124.37 230.326 124.816 230.902 124.992C230.155 124.862 230.389 125.195 230.164 125.221C230.094 125.23 229.624 125.141 229.509 125.202C229.415 125.255 229.769 125.469 229.698 125.52C229.62 125.581 229.217 125.572 229.185 125.607C229.154 125.64 229.476 125.695 229.47 125.742C229.446 125.887 228.917 126.047 228.907 126.212C228.891 126.452 229.865 126.613 230.302 126.69C230.242 126.722 230.039 126.766 230.041 126.795C230.044 127.13 229.989 127.712 229.969 128.211C229.941 128.424 229.058 129.559 230.911 128.403C231.266 128.271 230.762 129.128 230.824 129.231C230.873 129.322 231.231 129.147 231.279 129.199C231.425 129.355 231.331 129.674 231.761 129.62C231.873 129.604 232.236 129.31 232.258 129.337C232.284 129.37 232.027 129.739 232.057 129.802C232.13 129.949 232.437 129.993 232.511 130.132C232.525 130.159 232.319 130.494 232.288 130.62C232.17 131.113 232.374 131.178 232.946 130.061C232.763 130.773 233.226 130.274 233.377 130.293C233.684 130.35 234.338 130.793 234.562 130.278C234.735 129.961 234.685 129.404 235.035 129.897C235.121 130.005 235.202 130.148 235.29 130.272C235.476 130.565 235.733 131.579 235.671 130.322C235.893 130.617 235.982 130.364 236.408 131.359C236.363 131.105 236.314 130.853 236.263 130.6C236.284 130.588 236.305 130.575 236.327 130.562C236.403 130.795 236.48 131.028 236.559 131.26C236.784 131.262 236.655 130.234 236.773 130.189C236.987 130.12 237.717 130.144 238.133 130.23C238.355 130.28 238.019 129.875 238.779 130.645C238.758 130.565 238.736 130.485 238.712 130.406C238.572 130.215 238.431 130.025 238.287 129.836C238.406 129.718 238.814 129.828 238.93 129.692C239.153 129.435 238.871 128.713 239.38 128.674C239.51 128.663 239.989 128.801 240.022 128.722C240.071 128.607 239.354 128.235 239.392 128.113C239.455 127.919 240.493 127.773 240.482 127.49C240.478 127.411 240.191 127.315 240.169 127.262C240.074 127.04 240.122 126.87 239.675 126.651C240.462 126.528 241.458 126.58 242.469 126.539C243.233 126.514 245.001 126.279 245.666 126.225C246.134 126.192 246.736 126.317 247.251 126.272C247.657 126.863 247.182 127.127 246.416 127.49C246.354 128.311 246.202 129.133 245.962 129.929C245.671 129.911 245.382 129.886 245.093 129.856L245.091 129.855C244.687 130.017 245.313 130.394 245.399 130.617C246.268 132.849 242.958 135.035 241.383 135.713C241.06 135.904 240.105 136.852 239.668 136.531C239.556 136.451 239.366 136.061 239.295 136.07C238.834 136.551 238.31 137 237.73 137.404C236.26 137.055 235.147 137.683 233.675 137.623C229.938 137.49 226.207 135.348 224.495 131.925C224.165 131.281 223.498 130.523 223.488 129.759C223.483 129.44 224.125 129.154 223.532 128.903C223.714 128.857 223.896 128.811 224.078 128.765C223.786 128.501 223.325 128.374 223.222 127.99C223.128 127.659 223.029 126.741 223.103 126.504C223.136 126.37 223.488 126.416 223.485 126.298C223.477 126.105 223.001 125.649 223.028 125.299C223.049 124.99 223.52 124.497 223.5 124.279C223.422 123.469 223.091 122.397 223.582 121.608C223.718 121.391 224.262 121.29 224.281 121.22C224.318 121.077 223.94 120.845 223.935 120.727C223.909 120.122 224.783 119.676 225.082 119.291C226.054 118 227.196 116.651 228.631 115.858C229.512 115.342 231.092 114.598 232.083 114.709C232.295 114.73 232.357 115.213 232.512 115.177C232.683 115.138 232.714 114.799 232.792 114.756C233.296 114.445 234.774 113.996 235.204 114.356C235.3 114.421 235.363 114.803 235.421 114.803C235.45 114.804 235.523 114.547 235.622 114.525C236.531 114.338 237.252 114.605 238.059 114.909C239.611 115.478 241.62 115.991 242.796 117.381C243.052 117.682 242.709 118.401 242.748 118.429C242.836 118.496 243.245 118.19 243.5 118.278C244.357 118.583 244.578 119.781 245.162 120.296C245.458 120.55 246.273 120.732 246.567 121.044C246.808 121.29 246.839 122.081 247.145 122.126C247.334 122.153 247.865 122.023 247.964 122.108ZM237.091 121.586C237.463 120.795 236.944 121.364 236.853 121.833C236.83 121.938 236.992 121.79 237.091 121.586ZM228.638 127.656C228.881 127.599 229.123 127.542 229.366 127.486C229.257 127.473 229.148 127.458 229.039 127.442C228.897 127.492 228.754 127.544 228.612 127.598C228.621 127.617 228.629 127.637 228.638 127.656Z" fill="#252525"/>
<path d="M231.179 168.855C224.773 182.582 210.708 192.112 194.387 192.112C178.066 192.112 164.002 182.582 157.595 168.855H165.726C171.517 178.518 182.185 184.999 194.387 184.999C206.589 184.999 217.257 178.518 223.049 168.855H231.179Z" fill="#252525"/>
<path d="M232.541 172.922C232.098 173.887 231.296 175.028 230.611 175.832C230.397 176.084 230.354 175.853 230.2 176.022C229.898 176.35 229.726 176.732 229.408 177.04C229.302 177.14 229.198 176.843 229.092 176.951C228.512 177.546 228.087 178.2 227.514 178.808C224.694 181.79 221.649 184.421 218.184 186.619C217.04 187.347 215.52 187.988 214.342 188.73C214.205 188.817 214.397 188.973 214.378 189.004C214.081 189.487 214.01 189.003 213.702 189.093C212.473 189.45 211.209 189.999 210.123 190.527C209.661 190.751 210.305 190.986 209.73 190.936C209.69 190.933 209.725 190.66 209.584 190.686C209.267 190.747 208.716 190.995 208.477 191.058C208.017 191.179 207.943 191.207 207.515 191.344C206.931 191.529 206.199 191.624 205.581 191.85C205.45 191.899 205.694 192.09 205.488 192.19C205.282 192.29 204.698 192.418 204.489 192.407C204.28 192.398 204.318 192.187 204.273 192.152C203.905 191.853 203.354 192.512 203.269 192.542C201.735 193.093 200.314 193.011 198.814 193.169C197.672 193.29 196.432 193.464 195.354 193.473C194.065 193.483 192.985 193.327 191.72 193.273C191.586 193.266 191.727 193.569 191.563 193.562C189.806 193.48 188.092 193.228 186.435 192.713C186.268 192.661 186.535 192.45 186.373 192.383C185.374 191.982 183.923 191.103 183.023 192.007C182.344 191.775 181.523 191.473 180.99 191.055C180.647 190.786 181.114 190.651 180.602 190.6C180.486 190.588 180.544 190.868 180.376 190.831C179.669 190.677 178.963 190.321 178.257 190.165C178.113 190.134 178.065 190.352 178.011 190.372C177.565 190.533 177.243 189.814 177.147 189.728C176.393 189.075 175.726 188.874 174.942 188.458C174.761 188.361 174.84 188.735 174.659 188.651C173.725 188.205 172.806 187.644 172.02 186.997C171.846 186.852 172.154 186.75 172.078 186.67C171.744 186.32 171.399 186.661 171.078 186.325C171.009 186.254 171.174 186.106 171.172 186.076C171.153 185.619 170.666 185.92 170.601 185.889C169.779 185.514 169.645 184.737 168.929 184.282C168.842 184.228 168.858 184.585 168.624 184.416C167.065 183.299 165.594 181.875 164.44 180.365C164.261 180.131 164.553 180.14 164.559 180.109C164.635 179.622 164.123 179.845 164.042 179.788C163.421 179.333 163.292 178.516 162.483 178.532C160.583 175.963 158.477 173.423 157.554 170.362C157.542 170.323 157.805 170.27 157.781 170.194C157.587 168.911 157.19 168.873 158.283 167.759C158.911 167.484 159.203 168.176 159.277 168.201C159.432 168.363 159.272 168.749 159.323 168.78C159.752 169.025 159.682 167.747 160.261 167.747C160.279 167.749 160.203 167.984 160.251 168.007C160.402 168.081 160.552 167.987 160.699 168.069C161.037 168.256 161.157 168.877 161.673 168.515C161.739 168.469 161.639 167.743 162.155 167.778C162.361 167.792 163.272 167.78 163.527 167.827C163.783 167.873 163.608 168.107 163.625 168.118C164.312 168.426 164.052 168.554 164.396 169.011C164.741 169.467 164.646 168.38 164.786 168.259C164.907 168.144 165.497 168.363 165.675 168.549C165.806 168.697 165.562 168.756 165.659 168.854C166.048 169.528 166.382 168.805 166.69 168.901C167.331 169.159 166.888 169.95 167.116 170.421C167.177 170.547 167.264 170.351 167.349 170.442C167.68 170.803 167.649 171.189 168.167 171.493C168.253 171.544 168.905 171.597 168.806 172.042C168.793 172.106 168.562 172.141 168.658 172.332C168.8 172.617 169.128 173.077 169.4 173.286C169.6 173.439 169.662 173.009 169.789 173.309C169.846 173.443 169.531 173.38 169.652 173.621C169.771 173.861 170.228 174.343 170.408 174.52C170.588 174.697 170.672 174.423 170.699 174.425C170.853 174.447 171.274 174.701 171.304 174.73C172.825 176.198 174.093 177.782 175.903 178.84C176.045 178.923 176.102 178.642 176.125 178.653C176.648 178.868 175.893 179.212 176.096 179.626C176.341 179.144 176.481 179.354 176.847 179.513C177.024 179.59 177.046 179.358 177.071 179.349C177.475 179.228 177.428 179.675 177.429 179.773C177.432 180.133 177.792 179.923 177.799 180.164C177.808 180.405 177.4 180.519 177.737 180.707C177.925 180.593 177.929 180.017 178.217 180.088C179.295 180.357 180.922 181.574 181.722 181.937C182.51 182.305 182.788 182.364 183.241 182.602C184.065 183.023 183.869 182.56 184.456 182.571C185.043 182.576 184.514 183.371 184.535 183.584C184.556 183.796 184.7 183.627 184.766 183.761C184.834 183.893 184.584 183.959 184.803 184.066C185.024 184.175 185.752 184.009 185.884 183.83C186.165 183.451 185.999 182.937 186.556 183.242C186.588 183.26 186.419 183.467 186.546 183.523C187.558 183.959 188.672 184.183 189.731 184.496C189.878 184.539 189.708 184.787 189.793 184.815C190.685 185.104 190.418 184.612 190.962 184.165C190.782 184.818 191.015 185.261 191.722 185.32C192.147 185.354 192.093 185.057 192.373 184.868C192.456 184.811 192.743 185.027 192.802 184.892C192.993 184.45 192.734 183.94 193.431 184.163C193.462 184.173 193.358 184.416 193.465 184.434C194.157 184.547 194.25 184.079 194.995 184.012C195.577 183.96 196.614 184.195 197.28 184.182C197.326 184.933 197.955 184.702 198.149 184.156C198.582 184.129 199.04 184.037 199.465 184.044C199.61 184.047 199.551 184.276 199.572 184.297C199.908 184.618 200.015 184.088 200.103 184.052C201.066 183.689 201.963 183.883 202.806 183.277C202.836 183.254 202.754 182.737 203.101 183.037C203.125 183.058 202.879 183.373 203.323 183.269C203.765 183.167 204.678 183.182 205.2 182.744C205.329 182.639 205.546 182.113 205.95 182.315C206.005 182.342 206.014 182.499 206.1 182.556C206.377 182.735 206.286 182.205 206.662 182.539C207.038 182.873 207.626 183.001 208.102 182.453C208.117 182.436 208.089 181.992 208.276 181.913C208.576 181.789 209.03 181.67 209.333 181.516C209.478 181.442 209.269 181.256 209.292 181.239C210.193 180.622 210.976 180.454 212.026 179.926C212.22 179.829 212.543 179.203 213.041 179.204C213.59 179.201 213.921 180.531 214.634 179.653C214.926 179.292 214.377 177.688 215.489 177.873C216.511 176.787 217.821 176.173 218.647 174.889C218.685 174.832 218.503 174.368 218.613 174.26C218.777 174.098 219.018 174.148 219.139 174.035C219.654 173.563 219.929 172.962 220.368 172.46C220.534 172.269 220.65 172.474 220.847 172.242C221.044 172.009 220.938 171.676 221.293 171.429C221.561 171.244 222.225 171.327 222.523 171.016C222.052 170.678 222.225 170.451 222.372 169.947C222.4 169.85 222.174 169.828 222.178 169.777C222.192 169.566 222.425 169.511 222.423 169.302C222.423 169.252 222.256 169.145 222.246 169.098C222.03 168.725 223.272 168.351 223.326 168.541C223.765 168.807 223.832 168.57 224.097 168.682C224.344 168.798 223.974 168.943 224.264 169.013C224.864 169.159 225.636 169.127 226.245 169.135C226.488 169.139 226.323 168.874 226.358 168.868C226.861 168.801 227.37 169.082 227.649 168.556C227.997 169.917 227.952 168.424 228.671 168.697C228.728 168.718 228.8 169.362 228.582 169.456C228.365 169.551 228.035 169.349 227.733 169.497C227.662 169.532 227.252 170.135 227.196 170.171C226.76 170.456 226.697 169.495 226.674 169.442C226.412 168.872 225.911 169.521 225.78 169.566C225.177 169.772 224.665 169.637 224.161 169.783C223.831 169.879 223.799 170.508 223.54 170.49C224.446 170.087 223.204 169.827 223.431 170.968C223.466 171.207 224.145 171.439 223.32 171.682C223.268 171.699 222.582 171.814 222.67 172.224C222.681 172.276 222.844 172.393 222.829 172.441C222.729 172.762 222.475 172.836 222.327 173.152C222.18 173.469 222.012 173.863 221.71 174.122C221.529 174.278 221.049 174.266 220.908 174.291C220.505 174.356 220.606 174.893 220.238 174.824C219.871 174.753 219.761 174.15 219.273 174.378C219.644 174.744 220.008 175.139 220.372 175.517C219.584 176.343 218.669 177.008 217.837 177.782C217.734 177.878 218.028 177.991 217.921 178.101C217.467 178.561 216.91 178.769 216.439 179.246C216.076 179.615 215.803 180.195 215.404 180.576C214.786 180.288 214.251 180.908 213.732 181.179C213.551 181.275 213.477 181.133 213.327 181.167C212.767 181.294 213.261 181.604 213.178 181.754C212.81 182.396 212.15 181.402 211.522 181.794C211.491 181.814 211.374 182.606 211.332 182.673C211.075 183.105 211.164 182.513 210.906 182.597C210.435 182.749 210.069 182.764 209.637 183.18C209.512 183.302 209.314 183.833 208.89 183.687C208.835 183.668 208.77 183.466 208.734 183.469C208.089 183.531 208.335 184.14 208.088 184.486C207.839 184.833 207.153 184.61 207.003 184.526C206.61 184.312 207.161 184.31 207.163 184.273C207.191 183.836 206.847 184.044 206.552 184.117C206.286 183.527 205.911 183.703 206.247 184.195C206.285 184.248 206.485 184.111 206.552 184.117C206.526 184.805 206.096 185.047 205.42 184.645C205.105 184.455 205.222 184.081 204.57 184.409C204.272 184.555 204.523 184.946 204.275 185.145C203.705 185.602 202.75 185.419 202.095 185.631C201.855 185.709 202.147 185.894 201.983 185.955C201.549 186.117 201.118 186.017 200.682 186.19C200.643 186.206 200.788 186.44 200.647 186.468C199.573 186.686 198.616 186.649 197.476 186.744C196.922 186.792 195.933 186.989 195.37 186.974C194.394 186.955 193.225 186.561 192.379 186.602C191.828 186.627 191.931 186.889 191.679 187.045C191.186 187.349 190.431 186.663 190.339 186.557C190.336 186.554 190.81 186.544 190.575 186.387C190.46 186.099 190.345 186.556 190.339 186.557C190.274 186.491 189.352 186.314 189.161 186.332C189.056 186.344 189.076 186.592 189.023 186.593C187.739 186.619 186.461 186.42 185.242 185.982C185.221 185.971 185.323 185.717 185.274 185.696C184.589 185.389 184.046 185.572 183.395 185.572C182.747 185.57 182.296 185.34 182.116 184.778C181.66 184.675 181.117 184.24 180.817 183.978C180.516 183.717 180.261 184.179 180.225 184.175C179.126 184.06 178.693 183.52 177.752 182.975C177.303 182.715 176.371 182.276 175.86 182.031C175.455 181.839 175.295 181.592 174.909 181.435C174.856 181.413 174.775 181.641 174.756 181.64C174.216 181.621 174.717 181.263 174.695 181.126C174.617 180.626 174.561 180.35 173.988 180.16C173.858 180.116 173.055 180.556 172.825 180.444C172.529 180.299 172.805 180.136 172.493 179.988C172.467 179.975 172.36 180.124 172.2 179.989C171.453 179.364 170.716 178.6 169.965 177.93C169.863 177.838 169.796 178.171 169.645 178.04C168.934 177.425 168.212 176.679 167.697 175.912C167.572 175.723 167.817 175.691 167.829 175.614C167.9 175.151 167.228 175.187 167.174 175.139C165.893 174.04 165.477 172.704 164.355 171.422C164.335 171.419 163.251 170.791 163.814 170.742C163.903 170.801 164.529 170.846 164.951 171.254C164.997 171.273 164.47 171.493 165.281 171.541C164.993 171.515 164.461 171.686 164.029 171.404C163.891 171.315 163.565 170.818 163.153 171.215C163.126 171.242 162.49 172.138 162.263 171.52C162.227 171.418 162.264 170.764 161.773 171.099C161.679 171.164 161.85 171.31 161.602 171.401C161.223 171.542 160.721 171.366 160.254 171.658C160.173 171.709 159.827 172.153 159.55 171.816C159.506 171.763 159.589 171.546 159.442 171.521C157.777 171.626 161.631 170.871 160.416 168.845C160.382 168.9 160.08 169.083 160.099 169.327C160.131 169.596 160.29 170.088 160.559 170.24C160.827 170.391 161.185 169.879 161.411 170.19C162.385 171.518 162.992 173.049 163.961 174.416C164.104 174.618 164.14 174.333 164.364 174.619C165.182 175.679 166.84 177.262 167.368 178.378C167.793 179.281 166.767 178.633 167.185 179.241C167.391 179.536 168.116 179.32 168.19 179.361C168.926 179.762 169.157 180.351 169.778 180.756C169.906 180.839 169.961 180.54 170.068 180.612C170.432 180.856 170.717 181.236 171.06 181.475C171.215 181.581 171.311 181.399 171.438 181.516C171.744 181.792 171.985 182.076 172.204 182.464C172.224 182.5 171.875 182.561 172.12 182.747C172.517 183.047 172.93 183.554 173.518 183.702C173.694 183.746 173.945 183.359 174.084 183.823C174.113 183.92 173.738 184.343 174.353 184.157C174.458 184.128 175.393 183.933 175.488 184.465C175.513 184.606 175.496 185.12 175.712 185.157C175.741 185.16 175.764 184.889 175.924 184.949C176.486 185.165 177.026 185.475 177.61 185.673C177.766 185.725 177.661 185.388 177.888 185.472C178.512 185.702 179.238 186.098 179.808 186.42C180.018 186.54 179.784 186.673 179.791 186.702C179.911 187.158 180.257 186.748 180.354 186.754C180.956 186.8 181.286 187.176 181.812 187.293C181.957 187.326 181.938 187.062 181.973 187.051C182.327 186.949 181.973 187.289 182.14 187.396C182.609 187.699 183.192 187.861 183.727 187.982C183.922 188.027 183.784 187.694 183.958 187.736C184.989 187.979 186.051 188.26 187.037 188.61C187.224 188.676 187.062 188.865 187.093 188.922C187.308 189.316 187.803 188.924 187.902 188.894C188.36 188.763 188.494 188.978 188.879 188.997C190.761 189.094 192.934 189.362 194.792 189.416C197.142 189.482 198.867 189.522 201.045 189.1C201.183 189.072 200.994 188.812 201.111 188.786C202.617 188.448 204.121 188.202 205.576 187.671C205.694 187.627 205.441 187.42 205.628 187.341C206.01 187.18 206.512 187.03 206.935 186.974C207.143 186.945 206.961 187.258 207.168 187.225C207.653 187.147 208.148 186.981 208.592 186.756C208.781 186.66 208.383 186.519 208.635 186.414C210.349 185.689 211.95 184.848 213.76 184.203C213.884 184.159 214.274 184.589 214.457 184.351C214.393 184.205 214.296 184.047 214.216 183.898C216.49 182.407 218.756 180.919 220.764 179.047C220.849 178.969 220.497 178.888 220.658 178.736C221.589 177.847 222.377 176.889 223.458 176.077C223.564 175.995 223.926 176.39 224.115 176.037C224.148 175.975 224.465 175.474 224.468 175.283C224.468 175.256 224.208 175.186 224.319 175.034C224.963 174.155 225.673 173.265 226.396 172.432C226.513 172.298 226.631 172.6 226.716 172.504C227.324 171.825 227.653 170.885 228.275 170.247C228.693 169.818 228.99 170.221 229.533 170.154C229.61 170.144 229.788 169.822 230.028 169.924C230.634 170.178 231.187 170.671 231.843 170.923C231.984 170.978 232.078 170.436 232.261 170.878C232.273 170.908 232.206 171.304 232.27 171.446C232.315 171.543 232.605 171.56 232.639 171.732C232.672 171.903 232.406 171.931 232.412 172.19C232.418 172.449 232.731 172.507 232.541 172.922ZM179.498 182.781C179.297 182.404 178.846 183.216 179.283 183.179C179.305 183.177 179.509 182.799 179.498 182.781ZM218.18 176.482C217.576 176.494 217.756 177.142 218.205 177.157C218.658 177.167 218.366 176.477 218.18 176.482ZM221.091 172.86C220.515 173.062 221.477 173.962 221.63 173.349C221.638 173.314 221.124 172.848 221.091 172.86ZM228.938 171.497C228.951 171.5 229.093 171.276 229.085 171.264C228.898 170.997 228.617 171.442 228.938 171.497ZM223.362 169.225C223.186 169.08 223.114 169.445 223.351 169.516C223.482 169.62 223.477 169.425 223.362 169.225ZM166.748 170.686C166.757 170.673 166.658 170.507 166.595 170.552C166.393 170.703 166.607 170.889 166.748 170.686ZM230.369 169.47C230.354 168.922 228.563 167.915 230.589 168.318C230.924 168.47 229.73 168.442 230.152 168.639C230.658 168.84 231.664 169.363 230.986 170.107C230.938 170.12 230.419 169.389 230.367 169.47C230.367 169.47 230.368 169.47 230.369 169.47ZM179.801 181.692C179.801 181.678 179.565 181.55 179.554 181.557C179.293 181.757 179.771 182.018 179.801 181.692ZM158.114 170.888C158.096 170.914 158.374 171.477 158.406 171.484C158.985 171.541 158.43 170.411 158.114 170.888ZM197.291 184.2C197.55 183.881 197.878 183.812 198.148 184.156C197.862 184.168 197.576 184.194 197.291 184.2Z" fill="#252525"/>
</g>
</g>
<defs>
<clipPath id="clip0_2486_1172">
<rect width="1560" height="402" fill="white"/>
</clipPath>
<clipPath id="clip1_2486_1172">
<rect width="268" height="269" fill="white" transform="translate(60 58)"/>
</clipPath>
</defs>
</svg>
